<svg id="Layer_1" data-name="Layer 1" xmlns="http://www.w3.org/2000/svg" viewBox="0 0 581.98 137.54"><defs><style>.cls-1{fill:#231f20;}</style></defs><title>MediHair_Logo_Master</title><path class="cls-1" d="M153.25,73.09v85.12h-17.4V107.79l-27.18,19.65L81.5,107.79v50.42H64.09V73.09l44.58,33.8Z" transform="translate(-64.09 -73.09)"/><path class="cls-1" d="M170.44,158.21V74.55h51.87V90.28H187.84v15.6h34.47V121.6H187.84v20.89h34.47v15.72Z" transform="translate(-64.09 -73.09)"/><path class="cls-1" d="M273.34,74.55c24.14,0,43.79,18,43.79,41.78,0,24-19.65,41.88-43.68,41.88h-34V74.55Zm.11,67.94c14.49,0,25.83-11.12,25.83-26.16s-11.34-26-25.94-26H256.83v52.21Z" transform="translate(-64.09 -73.09)"/><path class="cls-1" d="M347.84,158.21H330.43V74.55h17.41Z" transform="translate(-64.09 -73.09)"/><path class="cls-1" d="M383.43,74.55v31.33h38.41V74.55h17.4v83.66h-17.4V121.6H383.43v36.61H366V74.55Z" transform="translate(-64.09 -73.09)"/><path class="cls-1" d="M514.18,147H473.65l-5.39,11.23h-18l44.13-85.12,44.24,85.12h-19Zm-33-15.72h25.38l-12.8-26Z" transform="translate(-64.09 -73.09)"/><path class="cls-1" d="M566.93,158.21H549.52V74.55h17.41Z" transform="translate(-64.09 -73.09)"/><path class="cls-1" d="M599.69,143.72v14.49h-17.4V74.55h29.08c19.65,0,34.7,14.71,34.7,32.91,0,15-7.19,26.05-18.87,31.44l18.08,19.31H622.15l-13.7-14.49ZM609.24,128c12.35,0,19.31-7.52,19.31-19.2,0-10.22-6.17-18.52-18.3-18.52H599.69V128Z" transform="translate(-64.09 -73.09)"/><polygon class="cls-1" points="14.65 124.67 3.1 124.67 3.1 115.23 0 115.23 0 137.18 3.1 137.18 3.1 127.62 14.65 127.62 14.65 137.18 17.76 137.18 17.76 115.23 14.65 115.23 14.65 124.67"/><path class="cls-1" d="M102,188.18,92,210.27h3.24l2.52-5.61h11.1l2.48,5.61h3.36l-10-22.09Zm5.6,13.62H99l4.31-9.61Z" transform="translate(-64.09 -73.09)"/><rect class="cls-1" x="60.91" y="115.23" width="3.1" height="21.95"/><path class="cls-1" d="M158,195a6.2,6.2,0,0,0-1.74-4.43,8.76,8.76,0,0,0-6.29-2.23h-9.49v21.94h3.11V202h5.54l6.16,8.25h3.82l-6.61-8.79C155.93,200.66,158,198.29,158,195Zm-3.13.15c0,2.44-2,4-5.11,4h-6.17v-7.91h6.2C153,191.25,154.84,192.65,154.84,195.14Z" transform="translate(-64.09 -73.09)"/><polygon class="cls-1" points="119.43 118.16 126.59 118.16 126.59 137.18 129.7 137.18 129.7 118.16 136.85 118.16 136.85 115.23 119.43 115.23 119.43 118.16"/><path class="cls-1" d="M229,195a6.2,6.2,0,0,0-1.74-4.43,8.76,8.76,0,0,0-6.29-2.23h-9.49v21.94h3.11V202h5.54l6.16,8.25h3.82l-6.61-8.79C226.92,200.66,229,198.29,229,195Zm-3.13.15c0,2.44-2,4-5.11,4h-6.17v-7.91h6.2C224,191.25,225.83,192.65,225.83,195.14Z" transform="translate(-64.09 -73.09)"/><path class="cls-1" d="M248.2,188.18l-10,22.09h3.24l2.52-5.61h11.1l2.48,5.61h3.36l-10-22.09Zm5.6,13.62h-8.59l4.31-9.61Z" transform="translate(-64.09 -73.09)"/><polygon class="cls-1" points="222.56 131.59 209.7 115.23 206.93 115.23 206.93 137.18 209.97 137.18 209.97 120.43 223.16 137.18 225.6 137.18 225.6 115.23 222.56 115.23 222.56 131.59"/><path class="cls-1" d="M309.87,197.8c-4.64-1-5.48-2.05-5.48-3.84s1.71-3.07,4.16-3.07a9,9,0,0,1,5.91,2.22l.28.23,1.83-2.41-.27-.22a11.41,11.41,0,0,0-7.69-2.69c-4.24,0-7.33,2.59-7.33,6.21,0,4,3,5.51,7.41,6.48s5.24,2,5.24,3.75-1.8,3.26-4.38,3.26a9.72,9.72,0,0,1-7-2.92l-.27-.24-1.95,2.3.26.23a12.74,12.74,0,0,0,8.91,3.49c4.48,0,7.61-2.62,7.61-6.42C317.07,200.8,314.92,198.9,309.87,197.8Z" transform="translate(-64.09 -73.09)"/><path class="cls-1" d="M336.39,188.33h-8.31v21.94h3.11v-7.49H336c4.33,0,8.7-2.26,8.7-7.36C344.69,191.11,341.43,188.33,336.39,188.33Zm-.31,11.56h-4.89v-8.64h5c3.4,0,5.35,1.55,5.35,4.32S339.41,199.89,336.08,199.89Z" transform="translate(-64.09 -73.09)"/><polygon class="cls-1" points="294.2 115.23 291.09 115.23 291.09 137.18 306.15 137.18 306.15 134.26 294.2 134.26 294.2 115.23"/><path class="cls-1" d="M388.66,188.18l-10,22.09h3.23l2.52-5.61h11.1l2.49,5.61h3.36l-10-22.09Zm5.61,13.62h-8.59l4.3-9.61Z" transform="translate(-64.09 -73.09)"/><polygon class="cls-1" points="363.02 131.59 350.17 115.23 347.39 115.23 347.39 137.18 350.44 137.18 350.44 120.43 363.63 137.18 366.06 137.18 366.06 115.23 363.02 115.23 363.02 131.59"/><polygon class="cls-1" points="376.56 118.16 383.72 118.16 383.72 137.18 386.83 137.18 386.83 118.16 393.99 118.16 393.99 115.23 376.56 115.23 376.56 118.16"/><path class="cls-1" d="M501.25,204.75c-1.87,1.78-3.71,3-6.62,3-4.41,0-7.87-3.7-7.87-8.48s3.39-8.35,7.87-8.35a8.8,8.8,0,0,1,6.44,2.81l.25.25,2.13-2.28-.26-.24a11.38,11.38,0,0,0-8.53-3.47,11.1,11.1,0,0,0-11.09,11.34v.06a10.9,10.9,0,0,0,11,11.28,11.46,11.46,0,0,0,8.75-3.84l.25-.25-2.08-2Z" transform="translate(-64.09 -73.09)"/><polygon class="cls-1" points="452.87 115.23 449.77 115.23 449.77 137.18 464.82 137.18 464.82 134.26 452.87 134.26 452.87 115.23"/><rect class="cls-1" x="475.47" y="115.23" width="3.1" height="21.95"/><polygon class="cls-1" points="506.55 131.59 493.69 115.23 490.92 115.23 490.92 137.18 493.96 137.18 493.96 120.43 507.15 137.18 509.59 137.18 509.59 115.23 506.55 115.23 506.55 131.59"/><rect class="cls-1" x="521.94" y="115.23" width="3.1" height="21.95"/><path class="cls-1" d="M618.22,204.75c-1.87,1.78-3.71,3-6.62,3-4.41,0-7.87-3.7-7.87-8.48s3.39-8.35,7.87-8.35A8.8,8.8,0,0,1,618,193.7l.25.25,2.12-2.28-.25-.24a11.38,11.38,0,0,0-8.53-3.47,11.1,11.1,0,0,0-11.09,11.34v.06a10.9,10.9,0,0,0,11,11.28,11.46,11.46,0,0,0,8.75-3.84l.25-.25-2.08-2Z" transform="translate(-64.09 -73.09)"/><path class="cls-1" d="M638.87,197.8c-4.64-1-5.48-2.05-5.48-3.84s1.71-3.07,4.16-3.07a9,9,0,0,1,5.91,2.22l.28.23,1.83-2.41-.27-.22a11.41,11.41,0,0,0-7.69-2.69c-4.24,0-7.33,2.59-7.33,6.21,0,4,3,5.51,7.41,6.48s5.24,2,5.24,3.75-1.8,3.26-4.38,3.26a9.72,9.72,0,0,1-7-2.92l-.27-.24-2,2.3.26.23a12.74,12.74,0,0,0,8.91,3.49c4.48,0,7.61-2.62,7.61-6.42C646.07,200.8,643.92,198.9,638.87,197.8Z" transform="translate(-64.09 -73.09)"/></svg>